<?xml version="1.0" encoding="UTF-8"?>
<svg id="Layer_1" data-name="Layer 1" xmlns="http://www.w3.org/2000/svg" viewBox="0 0 564 140">
  <defs>
    <style>
      .cls-1 {
        fill-rule: evenodd;
      }

      .cls-1, .cls-2 {
        fill: #f7f7f7;
        stroke-width: 0px;
      }
    </style>
  </defs>
  <g>
    <path class="cls-2" d="m127.58,48.27h8.56l10.75,33.42,11.08-33.55h6.7l11.08,33.55,10.75-33.42h8.31l-15.65,45.4h-6.89l-11.08-32.39-11.08,32.39h-6.83l-15.71-45.4h0Zm86.42,45.85c-2.58,0-4.97-.46-7.18-1.38-2.21-.92-4.12-2.18-5.73-3.77-1.61-1.59-2.87-3.46-3.77-5.6-.9-2.15-1.35-4.42-1.35-6.83v-.13c0-2.45.46-4.74,1.38-6.89.92-2.15,2.19-4.03,3.8-5.64,1.61-1.61,3.52-2.89,5.73-3.83,2.21-.94,4.63-1.42,7.24-1.42s5.03.46,7.24,1.38c2.21.92,4.12,2.19,5.73,3.8,1.61,1.61,2.87,3.48,3.77,5.6.9,2.12,1.35,4.41,1.35,6.86v.13c0,2.4-.46,4.68-1.38,6.83-.92,2.15-2.19,4.02-3.8,5.63-1.61,1.61-3.53,2.89-5.76,3.83-2.23.94-4.66,1.42-7.28,1.42h0Zm.13-6.83c1.59,0,3.02-.29,4.28-.87,1.27-.58,2.35-1.35,3.25-2.32.9-.97,1.59-2.1,2.06-3.41.47-1.31.71-2.69.71-4.15v-.13c0-1.5-.26-2.92-.77-4.25-.52-1.33-1.23-2.49-2.16-3.48-.92-.99-2.02-1.77-3.28-2.35-1.27-.58-2.67-.87-4.22-.87s-2.95.29-4.22.87c-1.27.58-2.35,1.35-3.25,2.32-.9.97-1.59,2.11-2.06,3.45-.47,1.33-.71,2.73-.71,4.19v.13c0,1.5.26,2.91.77,4.22.51,1.31,1.23,2.46,2.16,3.45.92.99,2.02,1.77,3.28,2.35,1.27.58,2.65.87,4.15.87h0Zm26.02-27.95h7.79v7.66c1.07-2.58,2.6-4.64,4.57-6.18,1.97-1.55,4.46-2.25,7.47-2.12v8.24h-.45c-1.72,0-3.28.28-4.7.84-1.42.56-2.64,1.4-3.67,2.51-1.03,1.12-1.82,2.52-2.38,4.22-.56,1.7-.84,3.66-.84,5.89v12.94h-7.79v-34h0Zm26.59-13.01h7.79v28.08l14.1-15.07h9.47l-13.52,13.84,13.97,20.16h-9.14l-10.05-14.75-4.83,5.02v9.72h-7.79v-47.01h0Zm46.62,47.72c-1.59,0-3.11-.23-4.57-.68-1.46-.45-2.74-1.12-3.83-2-1.09-.88-1.97-1.98-2.64-3.28-.67-1.31-1-2.82-1-4.54v-.13c0-1.85.34-3.46,1.03-4.83.69-1.37,1.64-2.51,2.87-3.41,1.22-.9,2.7-1.58,4.44-2.03,1.74-.45,3.64-.68,5.7-.68,1.93,0,3.61.13,5.02.39,1.42.26,2.79.6,4.12,1.03v-.84c0-2.45-.72-4.29-2.16-5.54-1.44-1.25-3.53-1.87-6.28-1.87-1.93,0-3.65.19-5.15.58-1.5.39-3.03.9-4.57,1.55l-2.06-6.12c1.89-.86,3.82-1.53,5.8-2.03,1.97-.49,4.31-.74,7.02-.74,5.07,0,8.82,1.27,11.27,3.8,1.24,1.25,2.17,2.75,2.77,4.51.6,1.76.9,3.76.9,5.99v20.16h-7.6v-4.25c-1.16,1.37-2.64,2.54-4.44,3.51-1.8.97-4.01,1.45-6.63,1.45h0Zm2.19-5.67c1.29,0,2.49-.17,3.61-.52,1.12-.34,2.07-.84,2.87-1.48.79-.64,1.43-1.42,1.9-2.32.47-.9.71-1.89.71-2.96v-2.32c-.99-.39-2.14-.71-3.45-.97-1.31-.26-2.74-.39-4.28-.39-2.53,0-4.5.49-5.89,1.48-1.4.99-2.09,2.38-2.09,4.19v.13c0,1.63.63,2.9,1.9,3.8,1.27.9,2.84,1.35,4.73,1.35h0Z"/>
    <path class="cls-1" d="m85.04,23.62c1.3,1.26,3.15,4.01,4.27,5.52,1.35,1.81,2.69,3.64,4.03,5.45l10.1,13.69c.65.88,1.62,1.98,2.09,2.93l.03.06,7.33,21.73c2.45,7.26,5.01,14.49,7.38,21.78.58,1.79,1.7,3.44-.51,4.37-1.21.51-2.44.96-3.68,1.4-9.71,3.45-19.43,6.91-29.13,10.39-4.87,1.74-9.78,3.37-14.59,5.26-.86.34-1.44.71-2.42.45-1.37-.36-2.8-1.1-4.13-1.63-1.78-.7-3.58-1.37-5.36-2.05l-19.01-7.27c-1.77-.74-2.03-.1-2.47-2.62-.39-2.22-.6-4.45-.91-6.68l-2.78-19.88c-1.23-8.82-2.65-17.61-3.73-26.45l-.08-.63.54-.33c2.11-1.3,4.42-2.22,6.64-3.32l32.28-16.11c2.11-1.05,4.22-2.13,6.33-3.18,1.57-.78,5.28-2.79,6.87-3.16l.52-.12.39.37h0Zm18.22,30.56c-1.07.81-2.25,1.86-3.13,2.58-1.11.9-2.73,2.11-3.8,3.14.14.79.55,2.03.73,2.66.54,1.88,1.11,3.76,1.69,5.63.87,2.84,1.78,5.66,2.64,8.5.79,2.6.97,2.32,2.83,4.08,2.47,2.34,4.98,4.65,7.4,7.04,1.18,1.16,2.37,2.32,3.57,3.47.26.25.62.61,1.01.99l-12.93-38.1h0Zm7.39,36.95c-1.01-.98-2.04-1.95-3.06-2.92-1.27-1.22-2.5-2.48-3.76-3.7-.68-.66-2.52-2.55-3.51-3.28l-2,.84c.46,2.58.35,2.49,2.82,3.84,1.7.93,3.41,1.83,5.09,2.8,1.45.83,2.93,1.63,4.41,2.43h0Zm5.29,6.15c-1.03-.57-2.3-1.18-2.91-1.51l-13.74-7.45c-.19-.1-1.27-.76-1.43-.78-.21-.03-3.2,1.26-3.49,1.38-6.5,2.59-13.12,4.98-19.53,7.78-.05,1.29-.41,3.01-.59,4.12-.35,2.25-.73,4.5-1.08,6.74-.18,1.17-.66,3.68-.84,5.43l43.61-15.7h0Zm-14.25-46.27l-13.46-17.98,5.68,18.78c.23.75.42,1.57.68,2.35l7.1-3.15h0Zm-17.05-19.02c-.33,2.08-.64,4.16-.95,6.23-.49,3.26-.95,6.52-1.44,9.78-.32,2.12-.75,1.64.62,3.1l4.51,4.79c.22.23.6.73.91,1.03l3.48-1.53-7.14-23.41h0Zm-48.23,18.36c.11.06.2.1.27.14l5.55,3c2.47,1.34,4.94,2.67,7.4,4.02,1.23.68,2.47,1.34,3.7,2.02.26.14,1.44.89,1.66.94.23-.03,1.53-.7,1.79-.83,3.47-1.61,6.96-3.19,10.46-4.76,3.55-1.59,7.09-3.17,10.62-4.8.21-.1.93-.35,1.08-.47.04-.07.05-.25.06-.33.1-.72.21-1.43.32-2.14.54-3.53,1.09-7.06,1.62-10.59.35-2.31.69-4.63,1-6.95.07-.52.2-1.32.3-2.08l-45.84,22.81h0Zm62.04,27.07c-.18-.63-.39-1.27-.55-1.8-.59-1.99-1.19-3.98-1.79-5.97-.75-2.48-1.5-5.18-2.34-7.68l-.89.74,3.16,10.95c.24.84.58,2.46.96,3.37.38.12.94.27,1.46.38h0Zm-7.14-17.36c.53-.38,1.07-.9,1.53-1.25,0-.03-.02-.05-.02-.07-.04-.14-.08-.27-.13-.41l-2.13.95.76.79h0Zm2.32,16.17c-.21-.76-.5-1.59-.67-2.18-.48-1.73-.94-3.48-1.41-5.21-.37-1.36-.82-3.2-1.35-4.67l-4.27,1.84,2.4,8.94c1.23.38,3.69.98,5.3,1.28h0Zm1.13,3.99c-.06-.27-.14-.54-.22-.65l-1.96-.43c.1.08.19.16.26.23.18.16,1.02,1.04,1.19,1.12.12,0,.42-.12.72-.27h0Zm-9.36-22.04c-.6-.69-1.45-1.6-2.25-2.44.28,1.08.62,2.23.89,3.05l1.36-.61h0Zm3.15,3.35c-.3-.33-.64-.68-.94-.98l-2.69,1.23.29,1.18,3.34-1.44h0Zm-7.31-1.48l-1.96-7.29-21.44,9.73c1.47,1.21,3.89,2.83,4.98,3.68.54.42,1.1.82,1.67,1.2.88-.31,1.88-.78,2.69-1.12,1.92-.81,3.84-1.64,5.75-2.48,1.94-.85,3.88-1.71,5.82-2.58.69-.31,1.72-.73,2.49-1.13h0Zm13.77,25.25l-1.48-1.34-19.33,7.91.4,1.61,20.41-8.18h0Zm-4.16-3.6l-4.18-3.68-14.31,6.1c.1.7.42,1.81.53,2.31.11.47.32,1.58.57,2.35l17.39-7.08h0Zm-23.46-12.24l.93.71,14.02-5.97c-.05-.39-.15-.82-.28-1.22l-14.67,6.49h0Zm15.66-2.27l-13.21,5.64,1.91,8.23,13.46-5.77-2.16-8.1h0Zm-17.77,16.66c1.15-.44,2.66-1.02,3.6-1.51l-2.1-9.1c-.94-.24-2.72-.58-3.93-.75.23,1.62.96,4.31,1.2,5.48.4,1.94.72,3.95,1.24,5.88h0Zm-3.96-15.06c-1.16-.97-2.9-2.33-4.19-3.26.01.05.02.1.03.15.13.52.65.78,1.06,1.08.96.72,1.95,1.39,2.9,2.12l.2-.09h0Zm9.33,21.13c-.16-1.13-.68-3.23-1.08-4.64l-3.61,1.55c.13.63.23,1.26.36,1.89.32,1.59.58,1.33,1.89,2.11.04.02.07.05.11.07.05-.02.1-.04.14-.06l2.18-.93h0Zm-9.71-4.25l1.59-.68c-.05-.45-.28-1.08-.36-1.38-.21-.83-.36-1.68-.52-2.52-.38-1.92-1.48-8.28-2.17-9.59-.25-.31-.78-.69-1.36-1.08l1.32,7.01c.29,1.54.55,3.08.83,4.62.15.81.4,2.46.68,3.61h0Zm-7.69-22.37c-.03-.12-.05-.23-.07-.32-.12-.06-.25-.12-.36-.18l-.99-.54c.47.34.94.69,1.41,1.04,0,0,0,0,0,0h0Zm17.02,43.43c.2-1.34.4-2.67.6-4.01.27-1.85.78-4.39.93-6.33l-3.61-2.15c-.13,0-.38.1-.61.21.14,1.11.62,2.96.81,3.81.33,1.46.68,2.93,1,4.39l.88,4.07h0Zm-21.2-8.04l15.03-6.11c-.09-.34-.2-.69-.27-.8-.29-.24-.96-.51-1.32-.72-.5-.28-1.01-.55-1.51-.83-.33-.18-.65-.41-.97-.61-1.09.72-2.78,2.24-3.6,2.93-1.3,1.1-2.59,2.22-3.9,3.31-1.15.95-2.31,1.89-3.46,2.84h0Zm19.36,14.19l-3.67-17.22-19.97,8.1c2.02.95,4.45,1.77,6.5,2.54,2.23.83,4.49,1.64,6.71,2.51.57.22,1.13.49,1.72.7l6.85,2.59c.41.16,1.18.5,1.87.77h0Zm-26.63-12.01c.43-.35.85-.72,1.19-.99,1.52-1.24,3.03-2.5,4.54-3.76,2.31-1.93,4.61-3.91,6.94-5.81,1.14-.93,2.37-1.81,3.45-2.82.56-.52-.2-2.78-.33-3.47l-2.65-13.95c-.41-2.16.09-1.91-1.66-3.17-2.24-1.61-4.46-3.24-6.67-4.88-2.17-1.62-4.36-3.23-6.54-4.84-1.42-1.04-2.85-2.08-4.28-3.1-.19-.13-.42-.3-.66-.48l6.67,47.26h0Z"/>
  </g>
  <path class="cls-2" d="m340.43,46.35h7.79v47.01h-7.79v-47.01h0Zm37.8-1.87l7.08,3.15-7.92,7.41h-5.86l6.7-10.56h0Zm-3.67,49.65c-2.58,0-4.97-.46-7.18-1.38-2.21-.92-4.12-2.18-5.73-3.77-1.61-1.59-2.87-3.46-3.77-5.6-.9-2.15-1.35-4.42-1.35-6.83v-.13c0-2.45.46-4.74,1.38-6.89.92-2.15,2.19-4.03,3.8-5.64,1.61-1.61,3.52-2.89,5.73-3.83,2.21-.94,4.63-1.42,7.24-1.42s5.03.46,7.24,1.38c2.21.92,4.12,2.19,5.73,3.8,1.61,1.61,2.87,3.48,3.77,5.6.9,2.12,1.35,4.41,1.35,6.86v.13c0,2.4-.46,4.68-1.38,6.83-.92,2.15-2.19,4.02-3.8,5.63-1.61,1.61-3.53,2.89-5.76,3.83-2.23.94-4.66,1.42-7.28,1.42h0Zm.13-6.83c1.59,0,3.02-.29,4.28-.87,1.27-.58,2.35-1.35,3.25-2.32.9-.97,1.59-2.1,2.06-3.41.47-1.31.71-2.69.71-4.15v-.13c0-1.5-.26-2.92-.77-4.25-.52-1.33-1.23-2.49-2.16-3.48-.92-.99-2.02-1.77-3.28-2.35-1.27-.58-2.67-.87-4.22-.87s-2.95.29-4.22.87c-1.27.58-2.35,1.35-3.25,2.32-.9.97-1.59,2.11-2.06,3.45-.47,1.33-.71,2.73-.71,4.19v.13c0,1.5.26,2.91.77,4.22.52,1.31,1.23,2.46,2.16,3.45.92.99,2.02,1.77,3.28,2.35,1.27.58,2.65.87,4.15.87h0Zm41.15,16.49c-5.67,0-10.73-1.36-15.2-4.1l2.9-5.88c1.85,1.12,3.75,2,5.7,2.64,1.95.64,4.09.97,6.41.97,3.48,0,6.14-.88,7.99-2.63,1.85-1.75,2.77-4.34,2.77-7.75v-2.63c-1.42,1.85-3.07,3.35-4.96,4.51-1.89,1.16-4.23,1.74-7.02,1.74-2.02,0-3.95-.36-5.8-1.09-1.85-.73-3.49-1.77-4.93-3.12-1.44-1.35-2.59-3.02-3.45-4.99-.86-1.97-1.29-4.21-1.29-6.7v-.13c0-2.49.43-4.73,1.29-6.73.86-2,2.01-3.67,3.45-5.02,1.44-1.35,3.09-2.39,4.96-3.12,1.87-.73,3.79-1.09,5.76-1.09,2.88,0,5.25.57,7.12,1.71,1.87,1.14,3.47,2.5,4.8,4.09v-5.09h7.79v27.05c0,5.67-1.44,9.94-4.31,12.81-1.54,1.55-3.49,2.69-5.83,3.45-2.34.75-5.06,1.13-8.15,1.13h0Zm.61-19.77c1.33,0,2.62-.23,3.84-.68,1.23-.45,2.3-1.08,3.2-1.9.9-.82,1.63-1.8,2.17-2.96.54-1.16.81-2.43.81-3.8v-.13c0-1.37-.27-2.64-.81-3.8-.54-1.16-1.27-2.15-2.17-2.96-.9-.82-1.96-1.45-3.2-1.9-1.22-.45-2.51-.68-3.84-.68s-2.65.23-3.81.68c-1.17.45-2.19,1.08-3.07,1.9-.88.82-1.58,1.79-2.07,2.93-.49,1.14-.74,2.41-.74,3.83v.13c0,1.37.26,2.64.77,3.8.52,1.16,1.21,2.15,2.07,2.96.86.82,1.88,1.45,3.07,1.9,1.18.45,2.45.68,3.78.68h0Zm27.59-37.29h8.37v7.41h-8.37v-7.41h0Zm.32,12.62h7.79v34h-7.79v-34h0Zm33.68,34.77c-2.53,0-4.87-.46-7.02-1.38-2.15-.92-4-2.18-5.57-3.77-1.57-1.59-2.79-3.46-3.67-5.6-.88-2.15-1.32-4.42-1.32-6.83v-.13c0-2.4.44-4.69,1.32-6.86.88-2.17,2.11-4.06,3.7-5.67,1.59-1.61,3.46-2.89,5.6-3.83,2.15-.94,4.51-1.42,7.08-1.42,1.59,0,3.04.14,4.35.42,1.31.28,2.51.68,3.61,1.19,1.1.52,2.1,1.14,3.03,1.87.92.73,1.79,1.52,2.61,2.38l-4.89,5.22c-1.2-1.24-2.48-2.26-3.83-3.06-1.35-.79-2.99-1.19-4.93-1.19-1.42,0-2.73.29-3.93.87-1.2.58-2.24,1.35-3.12,2.32-.88.97-1.57,2.11-2.06,3.45-.49,1.33-.74,2.73-.74,4.19v.13c0,1.5.25,2.92.74,4.25.49,1.33,1.19,2.49,2.09,3.48.9.99,1.97,1.76,3.22,2.32,1.24.56,2.62.84,4.12.84,1.85,0,3.47-.39,4.86-1.16,1.4-.77,2.72-1.78,3.96-3.03l4.7,4.64c-1.67,1.89-3.58,3.42-5.73,4.6-2.15,1.18-4.87,1.77-8.18,1.77h0Zm36.25,0c-2.58,0-4.97-.46-7.18-1.38-2.21-.92-4.12-2.18-5.73-3.77-1.61-1.59-2.87-3.46-3.77-5.6-.9-2.15-1.35-4.42-1.35-6.83v-.13c0-2.45.46-4.74,1.38-6.89.92-2.15,2.19-4.03,3.8-5.64,1.61-1.61,3.52-2.89,5.73-3.83,2.21-.94,4.63-1.42,7.24-1.42s5.03.46,7.24,1.38c2.21.92,4.12,2.19,5.73,3.8s2.87,3.48,3.77,5.6c.9,2.12,1.35,4.41,1.35,6.86v.13c0,2.4-.46,4.68-1.38,6.83-.92,2.15-2.19,4.02-3.8,5.63-1.61,1.61-3.53,2.89-5.76,3.83-2.23.94-4.66,1.42-7.28,1.42h0Zm.13-6.83c1.59,0,3.02-.29,4.28-.87,1.27-.58,2.35-1.35,3.25-2.32.9-.97,1.59-2.1,2.06-3.41.47-1.31.71-2.69.71-4.15v-.13c0-1.5-.26-2.92-.77-4.25-.51-1.33-1.23-2.49-2.16-3.48-.92-.99-2.02-1.77-3.28-2.35-1.27-.58-2.67-.87-4.22-.87s-2.95.29-4.22.87c-1.27.58-2.35,1.35-3.25,2.32-.9.97-1.59,2.11-2.06,3.45-.47,1.33-.71,2.73-.71,4.19v.13c0,1.5.26,2.91.77,4.22.51,1.31,1.23,2.46,2.16,3.45.92.99,2.02,1.77,3.28,2.35,1.27.58,2.65.87,4.15.87h0Z"/>
</svg>